<svg width="35" height="123" viewBox="0 0 35 123" fill="none" xmlns="http://www.w3.org/2000/svg">
<path d="M11.2344 122.617C23.5989 121.982 34.5521 113.784 32.2239 103.607C27.9114 84.3154 27.9114 60.0081 32.2239 40.7164H12.151C16.4635 60.0081 16.4635 84.3154 12.151 103.607C24.8021 105.727 29.5364 109.899 28.3333 112.227C27.6979 113.357 25.7187 114.065 23.25 114.065C19.151 114.065 13.8489 112.086 12.4375 107.211C-2.40105 110.534 -3.04168 123.393 11.2344 122.617Z" fill="#FFA285"/>
<mask id="mask0_265_1302" style="mask-type:luminance" maskUnits="userSpaceOnUse" x="9" y="0" width="26" height="36">
<path d="M9.10416 0.640625H34.1042V35.6406H9.10416V0.640625Z" fill="white"/>
</mask>
<g mask="url(#mask0_265_1302)">
<path d="M21.6042 0.640625C14.7031 0.640625 9.10938 6.125 9.10938 12.8906C9.10938 22.0781 21.6042 35.6406 21.6042 35.6406C21.6042 35.6406 34.099 22.0781 34.099 12.8906C34.099 6.125 28.5052 0.640625 21.6042 0.640625ZM21.6042 17.2656C19.1406 17.2656 17.1406 15.3073 17.1406 12.8906C17.1406 10.474 19.1406 8.51562 21.6042 8.51562C24.0677 8.51562 26.0677 10.474 26.0677 12.8906C26.0677 15.3073 24.0677 17.2656 21.6042 17.2656Z" fill="#FF5757"/>
</g>
</svg>
